PathFileType	4	(x/y/z)	S01_PSF_T09.trc
DataRate	CameraRate	NumFrames	NumMarkers	Units	OrigDataRate	OrigDataStartFrame	OrigNumFrames
240	240	10	51	mm	240	302	402
Frame#	Time	Sternum			R.Acromium			L.Acromium			Top.Head			R.ASIS			L.ASIS			R.PSIS			L.PSIS			R.Great.Tro			L.Great.Tro			R.Iliac.Crest			L.Iliac.Crest			V.Sacral			R.Thigh.Upper.Post			R.Thigh.Lower.Ant			R.Thigh.Lower.Post			R.Thigh.Upper.Ant			R.Knee.Lat			R.Knee.Med			R.Shank.Upper.Post			R.Shank.Lower.Ant			R.Shank.Lower.Post			R.Shank.Upper.Ant			R.Ankle.Lat			R.Ankle.Med			R.Heel.Upper			R.Heel.Med			R.Heel.Lat			R.Toe.Lat			R.Toe.Med			R.Toe.Tip			L.Thigh.Upper.Post			L.Thigh.Lower.Ant			L.Thigh.Lower.Post			L.Thigh.Upper.Ant			L.Knee.Lat			L.Knee.Med			L.Shank.Upper.Post			L.Shank.Lower.Ant			L.Shank.Lower.Post			L.Shank.Upper.Ant			L.Ankle.Lat			L.Ankle.Med			L.Heel.Upper			L.Heel.Med			L.Heel.Lat			L.Toe.Lat			L.Toe.Med			L.Toe.Tip			Cervical.Spine			Back			
		X1	Y1	Z1	X2	Y2	Z2	X3	Y3	Z3	X4	Y4	Z4	X5	Y5	Z5	X6	Y6	Z6	X7	Y7	Z7	X8	Y8	Z8	X9	Y9	Z9	X10	Y10	Z10	X11	Y11	Z11	X12	Y12	Z12	X13	Y13	Z13	X14	Y14	Z14	X15	Y15	Z15	X16	Y16	Z16	X17	Y17	Z17	X18	Y18	Z18	X19	Y19	Z19	X20	Y20	Z20	X21	Y21	Z21	X22	Y22	Z22	X23	Y23	Z23	X24	Y24	Z24	X25	Y25	Z25	X26	Y26	Z26	X27	Y27	Z27	X28	Y28	Z28	X29	Y29	Z29	X30	Y30	Z30	X31	Y31	Z31	X32	Y32	Z32	X33	Y33	Z33	X34	Y34	Z34	X35	Y35	Z35	X36	Y36	Z36	X37	Y37	Z37	X38	Y38	Z38	X39	Y39	Z39	X40	Y40	Z40	X41	Y41	Z41	X42	Y42	Z42	X43	Y43	Z43	X44	Y44	Z44	X45	Y45	Z45	X46	Y46	Z46	X47	Y47	Z47	X48	Y48	Z48	X49	Y49	Z49	X50	Y50	Z50	X51	Y51	Z51	

302	1.2542	292.16	1277.2	310.66	176.63	1529.8	482.15	158.77	1541	154.03	177.81	1853.7	304.15	233.32	1025.9	475.46	257.1	1031.2	209.34	3.3296	1058.2	360.86	9.3696	1058.1	257.21	149.84	967.91	546.99	164.96	976.85	123.07	138.68	1122.6	529.64	149.34	1107.1	124.81	-5.4097	1021.1	304.78	180.73	663.57	544.26	261.28	600.31	541.18	196.75	575.54	535.15	248.79	690.15	548.56	214.56	516.94	540.5	251.67	508.75	392.48	68.07	451.67	538.44	46.369	351.87	498.71	12.281	411.85	521.97	100.46	396.14	521.48	-141.77	288.17	469.31	-102.37	256.87	384.4	-184.22	331.11	396.78	-195.92	304.7	363.47	-214.48	309.73	425.86	-162.22	135.73	502.23	-114.09	108.04	390.9	-80.478	61.994	455.68	193.14	688.69	156.38	290.16	637.64	166.97	219.77	604.47	180.51	254.73	722.88	142.18	287.3	531.92	181.81	296.51	544.9	322.14	236.45	391.88	163.77	295.37	303	196.35	236.6	314.27	170.3	296.06	379.43	186.01	214.8	105.69	209.98	236.59	115.31	308.88	141.32	75.094	253.91	150.38	50.373	288.52	150.87	48.446	225.76	361.64	40.345	198.47	384.2	45.629	320.96	449.17	54.118	271.51	78.959	1592.8	323.89	-8.897	1282.8	340.32
303	1.2583	297.26	1278.3	310.95	181.29	1531	482.12	164.4	1542.1	153.91	183.42	1854.7	304.01	238.28	1027.3	475.45	262.26	1032.1	209.39	8.4027	1059.4	360.66	14.466	1059.3	256.99	154.96	969.38	547.06	169.95	977.7	122.99	143.42	1124	529.49	154.88	1108.2	124.75	-0.40418	1022.4	304.57	189.36	665.19	544.7	270.5	602.7	541.64	206.22	577.31	535.56	257.14	692.41	549.03	224.49	519.04	540.95	261.87	511.06	392.86	78.416	453.13	538.39	57.528	353	498.92	22.934	412.92	522	111.23	397.73	521.75	-130.13	288.31	469.19	-90.337	256.85	384.44	-172.99	330.27	396.18	-184.42	303.43	363.1	-203.03	308.76	425.46	-148.77	136.05	503.26	-100.42	107.93	392.1	-66.272	62.885	457.27	195.96	689.45	156.26	292.61	637.62	166.81	221.96	604.99	180.29	257.77	723.16	142.06	288.85	531.9	181.56	298.14	544.68	321.91	237.33	391.98	163.58	295.99	302.92	196.15	237.24	314.36	170.15	296.92	379.35	185.79	214.89	105.82	209.98	236.69	115.41	308.84	141.38	75.234	253.93	150.42	50.501	288.53	150.91	48.593	225.77	361.66	40.333	198.44	384.23	45.6	320.93	449.2	54.042	271.49	84.175	1593.9	323.52	-3.7908	1284	339.58
304	1.2625	302.36	1279.5	311.23	185.94	1532.1	482.11	170	1543.3	153.81	189.02	1855.8	303.91	243.26	1028.8	475.42	267.38	1033	209.42	13.473	1060.7	360.5	19.539	1060.5	256.81	160.12	970.87	547.13	174.89	978.55	122.91	148.21	1125.5	529.33	160.34	1109.3	124.71	4.5914	1023.6	304.4	197.93	666.85	545.14	279.66	605.13	542.07	215.61	579.12	535.96	265.43	694.71	549.48	234.33	521.16	541.37	271.99	513.42	393.22	88.721	454.5	538.34	68.722	354.03	499.13	33.579	413.86	522.02	122	399.26	522.02	-118.4	288.16	469.11	-78.206	256.65	384.49	-161.73	329.13	395.67	-172.87	301.88	362.81	-191.51	307.44	425.15	-135.05	136.05	504.21	-86.499	107.67	393.2	-51.737	63.618	458.69	198.72	690.2	156.15	294.98	637.61	166.64	224.08	605.52	180.08	260.74	723.43	141.93	290.33	531.89	181.31	299.72	544.45	321.66	238.15	392.09	163.39	296.57	302.86	195.95	237.82	314.47	170	297.72	379.28	185.56	214.98	105.95	209.98	236.78	115.51	308.8	141.43	75.374	253.96	150.47	50.631	288.54	150.94	48.743	225.78	361.68	40.321	198.41	384.25	45.576	320.9	449.23	53.973	271.47	89.372	1595	323.17	1.3152	1285.2	338.85
305	1.2667	307.44	1280.6	311.51	190.56	1533.3	482.11	175.58	1544.5	153.72	194.61	1856.9	303.85	248.25	1030.2	475.36	272.47	1033.9	209.43	18.541	1062	360.39	24.592	1061.7	256.67	165.3	972.37	547.21	179.78	979.39	122.84	153.06	1127	529.16	165.72	1110.5	124.68	9.5774	1024.8	304.28	206.44	668.53	545.6	288.73	607.59	542.46	224.93	580.97	536.36	273.66	697.03	549.91	244.1	523.3	541.75	282.03	515.83	393.56	98.988	455.78	538.29	79.951	354.95	499.35	44.216	414.66	522.05	132.77	400.74	522.28	-106.57	287.72	469.06	-65.978	256.27	384.56	-150.42	327.72	395.27	-161.26	300.07	362.61	-179.92	305.78	424.92	-121.09	135.74	505.07	-72.322	107.27	394.18	-36.892	64.194	459.95	201.4	690.96	156.06	297.27	637.59	166.47	226.12	606.05	179.89	263.64	723.7	141.8	291.73	531.88	181.04	301.26	544.24	321.42	238.91	392.2	163.2	297.1	302.81	195.74	238.36	314.57	169.84	298.46	379.23	185.32	215.07	106.08	209.97	236.88	115.6	308.77	141.49	75.515	253.98	150.51	50.76	288.55	150.98	48.896	225.79	361.71	40.311	198.38	384.27	45.553	320.87	449.25	53.91	271.45	94.552	1596.1	322.84	6.4218	1286.3	338.14
306	1.2708	312.52	1281.7	311.79	195.17	1534.4	482.13	181.14	1545.7	153.66	200.18	1857.9	303.83	253.25	1031.7	475.27	277.53	1034.8	209.41	23.606	1063.2	360.31	29.625	1062.8	256.57	170.52	973.88	547.29	184.62	980.22	122.77	157.95	1128.5	528.97	171.02	1111.6	124.65	14.554	1026	304.21	214.88	670.24	546.06	297.73	610.08	542.81	234.18	582.86	536.74	281.82	699.37	550.32	253.78	525.44	542.1	291.98	518.28	393.89	109.22	456.97	538.24	91.214	355.77	499.55	54.85	415.33	522.09	143.54	402.15	522.54	-94.647	287	469.05	-53.656	255.72	384.65	-139.08	326.02	394.96	-149.59	298.01	362.48	-168.25	303.8	424.79	-106.89	135.14	505.84	-57.902	106.72	395.05	-21.75	64.618	461.04	204.02	691.71	155.98	299.5	637.57	166.29	228.1	606.59	179.71	266.47	723.96	141.66	293.06	531.88	180.77	302.75	544.02	321.16	239.61	392.31	163.01	297.58	302.77	195.52	238.86	314.69	169.69	299.15	379.19	185.07	215.15	106.21	209.97	236.97	115.7	308.73	141.53	75.655	254.01	150.54	50.891	288.57	151.02	49.05	225.8	361.73	40.302	198.35	384.29	45.534	320.84	449.28	53.852	271.42	99.716	1597.2	322.53	11.529	1287.5	337.45
307	1.275	317.59	1282.9	312.06	199.77	1535.6	482.16	186.67	1546.8	153.62	205.74	1858.9	303.84	258.27	1033.2	475.16	282.56	1035.7	209.37	28.669	1064.4	360.27	34.638	1064	256.51	175.76	975.4	547.37	189.41	981.04	122.7	162.89	1130	528.77	176.23	1112.7	124.63	19.522	1027.2	304.17	223.26	671.97	546.53	306.66	612.58	543.11	243.35	584.76	537.12	289.91	701.73	550.7	263.39	527.59	542.42	301.82	520.76	394.19	119.41	458.06	538.2	102.51	356.49	499.75	65.481	415.85	522.12	154.3	403.49	522.78	-82.63	286	469.07	-41.243	254.99	384.74	-127.7	324.06	394.75	-137.85	295.69	362.44	-156.51	301.49	424.73	-92.451	134.25	506.53	-43.246	106.05	395.81	-6.3223	64.898	461.96	206.58	692.46	155.92	301.65	637.56	166.11	230.01	607.14	179.55	269.24	724.22	141.52	294.32	531.89	180.5	304.2	543.82	320.9	240.27	392.43	162.82	298.04	302.74	195.3	239.31	314.8	169.54	299.79	379.16	184.82	215.22	106.34	209.97	237.07	115.8	308.69	141.58	75.795	254.03	150.58	51.021	288.58	151.05	49.206	225.81	361.74	40.293	198.31	384.31	45.517	320.81	449.3	53.8	271.4	104.87	1598.3	322.24	16.638	1288.6	336.79
308	1.2792	322.66	1284	312.32	204.36	1536.7	482.19	192.18	1548	153.59	211.29	1860	303.89	263.29	1034.6	475.03	287.56	1036.7	209.31	33.728	1065.6	360.27	39.633	1065.1	256.5	181.03	976.91	547.45	194.15	981.85	122.64	167.87	1131.6	528.57	181.36	1113.8	124.61	24.48	1028.4	304.18	231.57	673.71	547	315.51	615.1	543.38	252.44	586.69	537.49	297.94	704.09	551.06	272.92	529.73	542.7	311.56	523.27	394.48	129.57	459.03	538.17	113.83	357.1	499.94	76.111	416.22	522.15	165.07	404.75	523.02	-70.518	284.72	469.12	-28.739	254.11	384.85	-116.27	321.83	394.63	-126.04	293.14	362.47	-144.69	298.88	424.76	-77.779	133.09	507.14	-28.359	105.25	396.45	9.3801	65.045	462.73	209.09	693.21	155.88	303.74	637.54	165.92	231.87	607.69	179.4	271.96	724.47	141.38	295.52	531.9	180.23	305.61	543.62	320.65	240.89	392.55	162.63	298.45	302.72	195.07	239.74	314.92	169.39	300.4	379.14	184.57	215.3	106.46	209.97	237.16	115.89	308.66	141.62	75.934	254.06	150.61	51.152	288.6	151.08	49.362	225.83	361.76	40.285	198.28	384.33	45.502	320.78	449.32	53.753	271.38	110	1599.4	321.97	21.747	1289.7	336.15
309	1.2833	327.72	1285.2	312.57	208.95	1537.8	482.24	197.66	1549.2	153.58	216.81	1861	303.98	268.33	1036.1	474.87	292.53	1037.6	209.23	38.782	1066.8	360.31	44.61	1066.2	256.52	186.32	978.42	547.53	198.84	982.65	122.59	172.88	1133.1	528.36	186.41	1114.9	124.6	29.43	1029.5	304.23	239.81	675.46	547.48	324.28	617.63	543.61	261.46	588.63	537.84	305.91	706.46	551.4	282.38	531.87	542.94	321.17	525.79	394.74	139.7	459.9	538.16	125.18	357.61	500.13	86.743	416.44	522.19	175.83	405.94	523.24	-58.309	283.19	469.19	-16.146	253.06	384.97	-104.79	319.33	394.6	-114.16	290.34	362.57	-132.78	295.96	424.86	-62.877	131.69	507.68	-13.247	104.34	397	25.348	65.072	463.35	211.54	693.96	155.85	305.78	637.52	165.74	233.67	608.24	179.26	274.62	724.72	141.23	296.67	531.92	179.96	306.99	543.43	320.39	241.46	392.67	162.44	298.84	302.71	194.85	240.13	315.04	169.24	300.96	379.13	184.32	215.37	106.58	209.98	237.24	115.99	308.62	141.66	76.073	254.09	150.64	51.282	288.61	151.11	49.516	225.84	361.78	40.275	198.26	384.34	45.489	320.74	449.33	53.712	271.36	115.13	1600.4	321.72	26.857	1290.8	335.53
310	1.2875	332.78	1286.4	312.82	213.53	1538.9	482.3	203.12	1550.4	153.58	222.31	1862	304.09	273.37	1037.6	474.69	297.47	1038.5	209.12	43.832	1068	360.38	49.571	1067.2	256.57	191.62	979.93	547.62	203.5	983.42	122.55	177.93	1134.6	528.15	191.41	1115.9	124.59	34.372	1030.7	304.31	247.99	677.21	547.97	332.98	620.16	543.79	270.4	590.58	538.19	313.8	708.82	551.71	291.75	533.99	543.15	330.66	528.33	394.98	149.8	460.65	538.16	136.56	358.03	500.3	97.377	416.52	522.23	186.58	407.06	523.44	-46.003	281.4	469.3	-3.4633	251.86	385.09	-93.265	316.58	394.65	-102.21	287.31	362.74	-120.78	292.76	425.03	-47.747	130.05	508.14	2.0868	103.33	397.44	41.57	64.992	463.83	213.94	694.71	155.84	307.76	637.5	165.56	235.42	608.8	179.14	277.23	724.96	141.09	297.76	531.94	179.69	308.34	543.25	320.13	242.01	392.8	162.25	299.2	302.71	194.63	240.51	315.16	169.09	301.49	379.13	184.08	215.43	106.69	209.98	237.32	116.08	308.59	141.69	76.211	254.11	150.66	51.412	288.63	151.14	49.668	225.86	361.79	40.265	198.23	384.36	45.477	320.71	449.35	53.675	271.33	120.24	1601.4	321.49	31.968	1291.9	334.94
311	1.2917	337.83	1287.5	313.05	218.11	1539.9	482.37	208.55	1551.5	153.6	227.79	1862.9	304.23	278.42	1039	474.49	302.37	1039.4	208.99	48.876	1069.1	360.48	54.516	1068.3	256.66	196.94	981.42	547.72	208.11	984.17	122.52	183	1136.1	527.95	196.35	1116.9	124.59	39.308	1031.7	304.42	256.11	678.95	548.45	341.59	622.68	543.94	279.27	592.53	538.52	321.63	711.17	551.99	301.05	536.09	543.33	340.02	530.86	395.19	159.86	461.27	538.17	147.96	358.35	500.46	108.02	416.44	522.27	197.33	408.09	523.64	-33.596	279.37	469.43	9.3089	250.51	385.22	-81.678	313.58	394.77	-90.162	284.04	362.97	-108.67	289.27	425.27	-32.39	128.19	508.54	17.638	102.22	397.8	58.037	64.82	464.18	216.3	695.46	155.84	309.69	637.49	165.38	237.13	609.37	179.03	279.8	725.19	140.95	298.8	531.97	179.42	309.66	543.08	319.88	242.52	392.92	162.06	299.54	302.72	194.41	240.86	315.29	168.94	301.98	379.13	183.83	215.49	106.81	209.99	237.4	116.18	308.55	141.72	76.348	254.14	150.68	51.541	288.65	151.17	49.816	225.87	361.8	40.253	198.21	384.37	45.468	320.68	449.36	53.643	271.31	125.35	1602.4	321.27	37.078	1292.9	334.38
